<svg xmlns="http://www.w3.org/2000/svg" viewBox="0 0 180 180">
  <rect width="180" height="180" rx="40" fill="#0f766e"/>
  <circle cx="90" cy="78" r="42" fill="none" stroke="#ecfeff" stroke-width="10"/>
  <path d="M48 78h84M90 36c14 10 22 25 22 42s-8 32-22 42c-14-10-22-25-22-42s8-32 22-42Z" fill="none" stroke="#ecfeff" stroke-width="8" stroke-linecap="round" stroke-linejoin="round"/>
  <path d="M60 54c9 6 19 10 30 10s21-4 30-10M60 102c9-6 19-10 30-10s21 4 30 10" fill="none" stroke="#ecfeff" stroke-width="6" stroke-linecap="round"/>
  <rect x="44" y="128" width="92" height="10" rx="5" fill="#f59e0b"/>
  <circle cx="74" cy="133" r="9" fill="#fff7ed" stroke="#f59e0b" stroke-width="4"/>
</svg>
