<svg xmlns="http://www.w3.org/2000/svg" viewBox="0 0 512 512" role="img" aria-labelledby="title desc">
  <title id="title">World History Lab icon</title>
  <desc id="desc">A teal rounded square with a globe grid and timeline accent.</desc>
  <rect width="512" height="512" rx="112" fill="#0f766e"/>
  <circle cx="256" cy="236" r="124" fill="none" stroke="#ecfeff" stroke-width="28"/>
  <path d="M132 236h248M256 112c40 30 64 76 64 124s-24 94-64 124c-40-30-64-76-64-124s24-94 64-124Z" fill="none" stroke="#ecfeff" stroke-width="22" stroke-linecap="round" stroke-linejoin="round"/>
  <path d="M168 168c26 18 56 28 88 28s62-10 88-28M168 304c26-18 56-28 88-28s62 10 88 28" fill="none" stroke="#ecfeff" stroke-width="18" stroke-linecap="round"/>
  <rect x="124" y="378" width="264" height="28" rx="14" fill="#f59e0b"/>
  <circle cx="208" cy="392" r="24" fill="#fff7ed" stroke="#f59e0b" stroke-width="10"/>
</svg>
